<svg width="69" height="86" viewBox="0 0 69 86" fill="none" xmlns="http://www.w3.org/2000/svg">
<path d="M66.0825 11.3227C66.0825 17.5761 20.8157 40.5531 13.8434 40.5531C6.87112 40.5531 5.48515 36.2583 1.21896 29.2304C-3.04724 22.2025 46.4858 0 53.458 0C60.4303 0 66.0825 5.06935 66.0825 11.3227Z" fill="#7A9CFA"/>
<path d="M67.8238 53.7434C67.8238 59.9968 20.6345 46.5593 13.6692 43.9044C6.70402 41.2494 0 37.5761 0 31.3227C0 25.0694 5.65216 20 12.6245 20C19.5967 20 67.8238 47.49 67.8238 53.7434Z" fill="#7A9CFA"/>
<path d="M69 58.9816C69 65.235 24.1242 86 17.1519 86C10.1796 86 4.5274 80.9306 4.5274 74.6773C4.5274 68.4239 49.4033 47.6589 56.3756 47.6589C63.3479 47.6589 69 52.7283 69 58.9816Z" fill="#7A9CFA"/>
</svg>
